<svg width="32" height="32" viewBox="0 0 32 32" fill="none" xmlns="http://www.w3.org/2000/svg">
<path d="M22.1963 2.19434H10.1963C9.40064 2.19434 8.63758 2.51041 8.07497 3.07302C7.51236 3.63562 7.19629 4.39869 7.19629 5.19434V27.1943C7.19629 27.99 7.51236 28.753 8.07497 29.3157C8.63758 29.8783 9.40064 30.1943 10.1963 30.1943H22.1963C22.9919 30.1943 23.755 29.8783 24.3176 29.3157C24.8802 28.753 25.1963 27.99 25.1963 27.1943V5.19434C25.1963 4.39869 24.8802 3.63562 24.3176 3.07302C23.755 2.51041 22.9919 2.19434 22.1963 2.19434ZM16.1963 9.19434C15.8996 9.19434 15.6096 9.10636 15.3629 8.94154C15.1163 8.77672 14.924 8.54245 14.8105 8.26836C14.6969 7.99427 14.6672 7.69267 14.7251 7.4017C14.783 7.11073 14.9258 6.84345 15.1356 6.63368C15.3454 6.4239 15.6127 6.28104 15.9037 6.22316C16.1946 6.16528 16.4962 6.19498 16.7703 6.30852C17.0444 6.42205 17.2787 6.61431 17.4435 6.86098C17.6083 7.10765 17.6963 7.39766 17.6963 7.69434C17.6963 8.09216 17.5383 8.47369 17.2569 8.755C16.9756 9.0363 16.5941 9.19434 16.1963 9.19434Z" fill="#1964D3"/>
<path d="M30.2614 18.5114C30.4395 18.3333 30.6089 18.1194 30.7287 17.8499C30.8502 17.5765 30.9 17.2925 30.9 17C30.9 16.7075 30.8502 16.4235 30.7287 16.1501C30.6089 15.8806 30.4395 15.6667 30.2614 15.4886C30.0833 15.3105 29.8694 15.1411 29.5999 15.0213C29.3265 14.8998 29.0425 14.85 28.75 14.85H27.15V13.25C27.15 12.9575 27.1002 12.6735 26.9787 12.4001C26.8589 12.1306 26.6895 11.9167 26.5114 11.7386C26.3333 11.5605 26.1194 11.3911 25.8499 11.2713C25.5765 11.1498 25.2925 11.1 25 11.1C24.7075 11.1 24.4235 11.1498 24.1501 11.2713C23.8806 11.3911 23.6667 11.5605 23.4886 11.7386C23.3105 11.9167 23.1411 12.1306 23.0213 12.4001C22.8998 12.6735 22.85 12.9575 22.85 13.25V14.85H21.25C20.9575 14.85 20.6735 14.8998 20.4001 15.0213C20.1306 15.1411 19.9167 15.3105 19.7386 15.4886C19.5605 15.6667 19.3911 15.8806 19.2713 16.1501C19.1498 16.4235 19.1 16.7075 19.1 17C19.1 17.2925 19.1498 17.5765 19.2713 17.8499C19.3911 18.1194 19.5605 18.3333 19.7386 18.5114C19.9167 18.6895 20.1306 18.8589 20.4001 18.9787C20.6735 19.1002 20.9575 19.15 21.25 19.15H22.85V20.75C22.85 21.0425 22.8998 21.3265 23.0213 21.5999C23.1411 21.8694 23.3105 22.0833 23.4886 22.2614C23.6667 22.4395 23.8806 22.6089 24.1501 22.7287C24.4235 22.8502 24.7075 22.9 25 22.9C25.2925 22.9 25.5765 22.8502 25.8499 22.7287C26.1194 22.6089 26.3333 22.4395 26.5114 22.2614C26.6895 22.0833 26.8589 21.8694 26.9787 21.5999C27.1002 21.3265 27.15 21.0425 27.15 20.75V19.15H28.75C29.0425 19.15 29.3265 19.1002 29.5999 18.9787C29.8694 18.8589 30.0833 18.6895 30.2614 18.5114Z" fill="#1964D3" stroke="white" stroke-width="1.8"/>
</svg>
