<svg width="32" height="32" viewBox="0 0 32 32" fill="none" xmlns="http://www.w3.org/2000/svg">
<path fill-rule="evenodd" clip-rule="evenodd" d="M23 27C23 27.3 22.9 27.5 22.7 27.7C22.5 27.9 22.3 28 22 28H10C9.7 28 9.5 27.9 9.3 27.7C9.1 27.5 9 27.3 9 27V5C9 4.7 9.1 4.5 9.3 4.3C9.5 4.1 9.7 4 10 4H22C22.3 4 22.5 4.1 22.7 4.3C22.9 4.5 23 4.7 23 5V9.4C23 9.8 23.4 10.2 23.8 10.1C23.9 10.1 23.975 10.075 24.05 10.05C24.125 10.025 24.2 10 24.3 10C24.7 10 25 9.7 25 9.3V5C25 4.2 24.7 3.4 24.1 2.9C23.6 2.3 22.8 2 22 2H10C9.2 2 8.4 2.3 7.9 2.9C7.4 3.5 7 4.2 7 5V27C7 27.8 7.3 28.6 7.9 29.1C8.4 29.7 9.2 30 10 30H22C22.8 30 23.6 29.7 24.1 29.1C24.7 28.5 25 27.8 25 27V24.7C25 24.3 24.7 24 24.3 24C24.1 24 24 24 23.8 23.9C23.4 23.8 23 24.2 23 24.6V27ZM15.2 6.3C15 6.5 14.8 6.7 14.6 7C14.5 7.3 14.5 7.6 14.5 7.9C14.6 8.2 14.7 8.5 14.9 8.7C15.1 8.9 15.4 9.1 15.7 9.1C15.85 9.05 16 9.025 16.15 9C16.3 8.975 16.45 8.95 16.6 8.9C16.9 8.8 17.1 8.6 17.3 8.3C17.5 8.1 17.6 7.8 17.6 7.5C17.6 7.1 17.4 6.7 17.2 6.4C16.8 6.2 16.4 6 16 6C15.7 6 15.4 6.1 15.2 6.3ZM29.625 17.875C29.875 17.625 30 17.375 30 17C30 16.625 29.875 16.375 29.625 16.125C29.375 15.875 29.125 15.75 28.75 15.75H26.25V13.25C26.25 12.875 26.125 12.625 25.875 12.375C25.625 12.125 25.375 12 25 12C24.625 12 24.375 12.125 24.125 12.375C23.875 12.625 23.75 12.875 23.75 13.25V15.75H21.25C20.875 15.75 20.625 15.875 20.375 16.125C20.125 16.375 20 16.625 20 17C20 17.375 20.125 17.625 20.375 17.875C20.625 18.125 20.875 18.25 21.25 18.25H23.75V20.75C23.75 21.125 23.875 21.375 24.125 21.625C24.375 21.875 24.625 22 25 22C25.375 22 25.625 21.875 25.875 21.625C26.125 21.375 26.25 21.125 26.25 20.75V18.25H28.75C29.125 18.25 29.375 18.125 29.625 17.875Z" fill="#454545"/>
</svg>
